<?xml version="1.0" encoding="UTF-8"?>
<svg id="Layer_1" data-name="Layer 1" xmlns="http://www.w3.org/2000/svg" viewBox="0 0 690.17 367.14">
  <defs>
    <style>
      .cls-1 {
        letter-spacing: .01em;
      }

      .cls-2 {
        fill: #c40008;
        stroke-width: 6px;
      }

      .cls-2, .cls-3 {
        stroke: #f5f5f5;
      }

      .cls-2, .cls-3, .cls-4 {
        stroke-miterlimit: 10;
      }

      .cls-3 {
        fill: #333;
      }

      .cls-3, .cls-4 {
        stroke-width: 4px;
      }

      .cls-5 {
        letter-spacing: .02em;
      }

      .cls-6 {
        fill: #000;
        font-size: 153.45px;
      }

      .cls-6, .cls-7 {
        font-family: ScienceGothicCondensed-Regular, 'Science Gothic Condensed';
      }

      .cls-8 {
        letter-spacing: .02em;
      }

      .cls-9 {
        letter-spacing: 0em;
      }

      .cls-7 {
        font-size: 145.5px;
      }

      .cls-7, .cls-4 {
        fill: #f5f5f5;
      }

      .cls-10 {
        letter-spacing: -.04em;
      }

      .cls-4 {
        stroke: #333;
      }
    </style>
  </defs>
  <rect class="cls-3" x="14.61" y="198.28" width="673.56" height="145.51" rx="12.94" ry="12.94"/>
  <rect class="cls-4" x="310.09" y="2" width="378.08" height="166.77" rx="12.94" ry="12.94"/>
  <path id="path573" class="cls-2" d="M8.61,89.6l11.76-6.12,8.47-10.36,6.59-9.41-.47-3.3,4.23-3.76,1.41-3.3.47-5.65,7.05-6.59-.47-7.53,9.41-10.36,9.88-3.29.47-3.76,4.71-5.65h4.24l5.64-5.18h3.3l.94,1.88,9.88,2.35h17.88l2.82.94,6.12-.47,2.35,6.59,2.82,2.35,3.77-.47,1.41-1.88.94,3.76,3.3,2.35h2.35l2.35-3.77,2.35-3.76,16-.94,1.41-1.88.47.94h10.35l1.88-3.29,4.71.47,4.71-.94,3.29,3.29,1.88,2.35-.94,6.59,3.76,3.76,1.41,3.3-2.35,5.18,2.35,13.65,3.77,6.12,3.76,4.24,5.64-.94,2.83-.47h1.88l1.88,4.71-3.3,1.41-3.76,12.7v14.12l3.3,4.23,3.29.94v5.18l1.88,2.35.47,3.3,3.3,2.82,17.88-1.41,3.29-4.23.47-3.3,10.82.94,8.47-4.24,9.88-1.41,3.76,5.18,11.77.94-3.3,2.83-8.94,2.35-4.71,2.35-3.76,3.77v6.59l-2.35,1.88-5.18,3.76-5.64,2.82-5.65,1.88-2.35,2.82v2.35h-16.47l-8,2.82-5.65.94-2.82,2.82-16.94,9.88-1.88,4.24-6.59,3.3-2.82,2.35-7.06-.47-2.82,3.76-5.65,4.71h-2.35l-5.65,4.24-.94,1.88h-3.77l-3.29-1.88,1.88-6.12-3.29-3.3-3.77-1.88-18.35,1.88,1.88-8-.47-4.71-5.64-9.41-1.41-8.94-3.76-6.12-1.88-9.41-4.71-6.59-5.65-8.47-12.7.47-4.71-.47-8-.47-3.29,2.82-2.35-4.24-8.47-1.41-9.41-5.64-8,.47-8.47-2.82-8.94-1.88-2.82,2.82h-8.47l-3.76-1.41-.94.94-6.12-1.41h0Z"/>
  <text class="cls-7" transform="translate(30.18 322.99)"><tspan class="cls-9" x="0" y="0">P</tspan><tspan class="cls-5" x="85.63" y="0">A</tspan><tspan class="cls-1" x="177.5" y="0">ULI</tspan><tspan class="cls-8" x="388.76" y="0">S</tspan><tspan class="cls-10" x="476.79" y="0">T</tspan><tspan class="cls-1" x="551.35" y="0">A</tspan></text>
  <text class="cls-6" transform="translate(315.85 154.42)"><tspan x="0" y="0">ROLÊ</tspan></text>
</svg>